<svg width="200" height="200" viewBox="0 0 200 200" fill="none" xmlns="http://www.w3.org/2000/svg">
<path d="M196.619 43.5375H67.8102V59.6052H186.394V145.146H67.8102V166.287H89.3559L74.1779 180.911C73.6764 181.394 73.3933 182.061 73.3933 182.757V186.037C73.3933 187.453 74.541 188.602 75.9574 188.602H153.586C155.002 188.602 156.15 187.453 156.15 186.037V182.757C156.15 182.061 155.866 181.394 155.365 180.911L140.187 166.287H196.619C198.486 166.287 200 164.774 200 162.905V46.918C200 45.0513 198.486 43.5375 196.619 43.5375ZM114.771 152.591C116.826 152.591 118.491 154.256 118.491 156.311C118.491 158.365 116.826 160.031 114.771 160.031C112.718 160.031 111.053 158.365 111.053 156.311C111.053 154.256 112.718 152.591 114.771 152.591Z" fill="#000E29"/>
<path d="M52.1062 11.399H4.14154C1.85385 11.399 0 13.2528 0 15.5405V184.289C0 186.576 1.85385 188.43 4.14154 188.43H52.1062C54.3939 188.43 56.2477 186.576 56.2477 184.289V15.5405C56.2482 13.2528 54.3939 11.399 52.1062 11.399ZM23.6759 32.4364C23.6759 32.0749 23.9687 31.7815 24.3308 31.7815H31.918C32.2795 31.7815 32.5728 32.0749 32.5728 32.4364V97.781C32.5728 98.1431 32.2795 98.4364 31.918 98.4364H24.3308C23.9687 98.4364 23.6759 98.1431 23.6759 97.781V32.4364ZM32.02 132.127C32.02 134.278 30.2764 136.023 28.1236 136.023C25.9718 136.023 24.2272 134.278 24.2272 132.127C24.2272 129.975 25.9713 128.23 28.1236 128.23C30.2764 128.23 32.02 129.974 32.02 132.127ZM28.1241 163.225C23.059 163.225 18.9523 159.118 18.9523 154.053C18.9523 148.988 23.059 144.881 28.1241 144.881C33.1892 144.881 37.2959 148.988 37.2959 154.053C37.2959 159.118 33.1892 163.225 28.1241 163.225Z" fill="#000E29"/>
</svg>
