<svg width="200" height="200" viewBox="0 0 200 200" fill="none" xmlns="http://www.w3.org/2000/svg">
<path d="M185.73 14.276H14.3019C6.39243 14.276 0 20.6619 0 28.552V171.435C0 179.312 6.39243 185.718 14.3019 185.718H185.73C193.595 185.718 200 179.312 200 171.435V28.552C200.006 20.6619 193.595 14.276 185.73 14.276ZM68.3134 24.9992C72.2617 24.9992 75.4449 28.1824 75.4449 32.1502C75.4449 36.0855 72.2681 39.2752 68.3134 39.2752C64.3716 39.2752 61.1559 36.0919 61.1559 32.1502C61.1559 28.1889 64.3651 24.9992 68.3134 24.9992ZM46.4456 24.9992C50.3809 24.9992 53.5901 28.1824 53.5901 32.1502C53.5901 36.0855 50.3874 39.2752 46.4456 39.2752C42.4844 39.2752 39.2817 36.0919 39.2817 32.1502C39.2752 28.1889 42.4779 24.9992 46.4456 24.9992ZM24.9927 24.9992C28.941 24.9992 32.1501 28.1824 32.1501 32.1502C32.1501 36.0855 28.9475 39.2752 24.9927 39.2752C21.0574 39.2752 17.8612 36.0919 17.8612 32.1502C17.8612 28.1889 21.0574 24.9992 24.9927 24.9992ZM185.73 171.435H14.3019V50.154H185.73V171.435ZM185.73 35.8585H85.7078V28.7206H185.73V35.8585V35.8585Z" fill="#000E29"/>
</svg>
