<svg width="200" height="200" viewBox="0 0 200 200" fill="none" xmlns="http://www.w3.org/2000/svg">
<path d="M150.429 51.6498C148.516 51.6498 146.609 51.7586 144.719 51.9768C142.441 42.5698 137.438 34.0019 130.218 27.314C121.031 18.8051 109.072 14.1191 96.5433 14.1191C73.4926 14.1191 53.8451 29.8595 48.44 51.6628C21.6256 52.2637 0 74.2642 0 101.22C0 128.555 22.2372 150.792 49.5707 150.792H58.8312C61.3935 154.892 64.2423 158.809 67.3679 162.522C79.6186 177.074 91.933 183.579 93.2893 184.269C95.3572 185.324 97.6781 185.881 100 185.881C102.309 185.881 104.618 185.33 106.669 184.291C108.034 183.601 120.36 177.129 132.627 162.578C135.769 158.85 138.633 154.914 141.207 150.792H150.429C177.763 150.792 200 128.555 200 101.22C200 73.887 177.763 51.6498 150.429 51.6498ZM141.086 130.41C137.33 139.975 132.09 148.781 125.514 156.583C114.261 169.932 102.949 175.747 102.473 175.988C101.696 176.382 100.848 176.579 100 176.579C99.1474 176.579 98.2949 176.38 97.5149 175.982C97.0391 175.74 85.733 169.893 74.4837 156.531C67.9084 148.72 62.6702 139.913 58.914 130.354C54.24 118.46 51.8698 105.386 51.8698 91.4954C51.8698 89.0335 53.513 86.874 55.886 86.2172C84.7902 78.227 96.3498 68.6377 96.4633 68.5414C98.52 66.8014 101.496 66.7819 103.537 68.5414C103.633 68.6219 115.546 78.32 144.114 86.2172C146.487 86.874 148.13 89.0335 148.13 91.4954C148.13 105.415 145.76 118.508 141.086 130.41Z" fill="#000E29"/>
<path d="M82.8613 149.478C89.7027 157.605 96.4753 162.505 99.9967 164.752L99.9999 79.4595C94.6097 83.0172 82.8288 89.6721 62.8958 95.5986C63.6655 116.533 70.3725 134.643 82.8613 149.478Z" fill="#000E29"/>
</svg>
