<svg width="16" height="16" viewBox="0 0 16 16" fill="none" xmlns="http://www.w3.org/2000/svg">
<g clip-path="url(#clip0_3_2)">
<path d="M-2.897e-07 10C-2.897e-07 10.736 0.181333 11.408 0.544 12.016C0.906666 12.624 1.392 13.1093 2 13.472C2.608 13.8347 3.27467 14.0107 4 14H13.008C13.8293 14 14.5333 13.7067 15.12 13.12C15.7067 12.5333 16 11.8293 16 11.008V10C16 9.17867 15.7067 8.47467 15.12 7.888C14.5333 7.30133 13.8293 7.008 13.008 7.008C12.9867 7.008 12.96 7.008 12.928 7.008C12.896 7.008 12.8693 7.01333 12.848 7.024C12.9547 6.64 13.008 6.29867 13.008 6C13.008 4.90133 12.6133 3.96267 11.824 3.184C11.0347 2.40533 10.096 2.01067 9.008 2C8.048 2 7.20533 2.304 6.48 2.912C5.75467 3.52 5.29067 4.27733 5.088 5.184C4.704 5.06667 4.34133 5.008 4 5.008C2.90133 5.008 1.95733 5.39733 1.168 6.176C0.378666 6.95467 -0.010667 7.89867 -2.897e-07 9.008V10Z" fill="#000E29"/>
</g>
<defs>
<clipPath id="clip0_3_2">
<rect width="16" height="16" fill="white"/>
</clipPath>
</defs>
</svg>
