<svg width="100" height="100" viewBox="0 0 100 100" fill="none" xmlns="http://www.w3.org/2000/svg">
<g clip-path="url(#clip0_19_66)">
<path d="M70.8334 63.5208V92.1542C70.8334 92.5228 70.7357 92.8848 70.5502 93.2033C70.3646 93.5218 70.0979 93.7854 69.7772 93.9671C69.4565 94.1488 69.0933 94.2422 68.7247 94.2378C68.3562 94.2333 67.9954 94.1311 67.6792 93.9417L50 83.3333L32.3209 93.9417C32.0044 94.1313 31.6432 94.2335 31.2742 94.2378C30.9053 94.2421 30.5419 94.1483 30.221 93.9661C29.9002 93.7839 29.6336 93.5197 29.4483 93.2006C29.2631 92.8815 29.1659 92.519 29.1667 92.15V63.525C23.7756 59.2087 19.8583 53.3245 17.9561 46.6856C16.0539 40.0466 16.2607 32.9808 18.5479 26.4645C20.8351 19.9481 25.0899 14.3031 30.7241 10.3095C36.3584 6.31587 43.0939 4.17084 50 4.17084C56.9061 4.17084 63.6417 6.31587 69.2759 10.3095C74.9102 14.3031 79.1649 19.9481 81.4521 26.4645C83.7394 32.9808 83.9462 40.0466 82.0439 46.6856C80.1417 53.3245 76.2244 59.2087 70.8334 63.525V63.5208ZM50 62.5C56.6304 62.5 62.9893 59.8661 67.6777 55.1777C72.3661 50.4893 75 44.1304 75 37.5C75 30.8696 72.3661 24.5107 67.6777 19.8223C62.9893 15.1339 56.6304 12.5 50 12.5C43.3696 12.5 37.0108 15.1339 32.3224 19.8223C27.6339 24.5107 25 30.8696 25 37.5C25 44.1304 27.6339 50.4893 32.3224 55.1777C37.0108 59.8661 43.3696 62.5 50 62.5ZM50 54.1667C45.5797 54.1667 41.3405 52.4107 38.2149 49.2851C35.0893 46.1595 33.3334 41.9203 33.3334 37.5C33.3334 33.0797 35.0893 28.8405 38.2149 25.7149C41.3405 22.5893 45.5797 20.8333 50 20.8333C54.4203 20.8333 58.6595 22.5893 61.7851 25.7149C64.9107 28.8405 66.6667 33.0797 66.6667 37.5C66.6667 41.9203 64.9107 46.1595 61.7851 49.2851C58.6595 52.4107 54.4203 54.1667 50 54.1667Z" fill="#000E29"/>
</g>
<defs>
<clipPath id="clip0_19_66">
<rect width="100" height="100" fill="white"/>
</clipPath>
</defs>
</svg>
