<svg width="100" height="100" viewBox="0 0 100 100" fill="none" xmlns="http://www.w3.org/2000/svg">
<path d="M32.1972 42.3986C33.1082 48.3202 37.684 55.8568 45.1999 58.5071C48.285 59.5838 51.6599 59.6045 54.745 58.4864C62.1367 55.8154 66.8574 48.2995 67.7891 42.3986C68.783 42.3157 70.0874 40.9285 71.4953 35.9386C73.4209 29.1266 71.3711 28.1121 69.6319 28.2777C69.9632 27.346 70.2116 26.3936 70.3773 25.4825C73.3174 7.82113 64.6213 7.22069 64.6213 7.22069C64.6213 7.22069 63.1719 4.44621 59.3829 2.355C56.8362 0.843533 53.2956 -0.31595 48.637 0.077446C47.1255 0.139561 45.6969 0.450137 44.351 0.884943C42.6325 1.46468 41.0589 2.31359 39.6303 3.30743C37.8911 4.4048 36.2346 5.77133 34.7853 7.32421C32.487 9.68459 30.4372 12.7282 29.5469 16.5173C28.8015 19.3538 28.9672 22.3147 29.5883 25.5032C29.754 26.435 30.0024 27.3667 30.3337 28.2984C28.5945 28.1328 26.5447 29.1473 28.4703 35.9593C29.8989 40.9285 31.2033 42.3157 32.1972 42.3986Z" fill="#000E29"/>
<path d="M84.1462 65.5675C73.5659 62.8758 64.9733 56.83 64.9733 56.83L58.2649 78.0526L57.0019 82.0487L56.9812 81.9866L55.8838 85.3822L52.3432 75.3403C61.0393 63.2071 50.5833 63.3313 50.0036 63.352C49.4238 63.3313 38.9678 63.2071 47.6639 75.3403L44.1233 85.3822L43.026 81.9866L43.0052 82.0487L41.7422 78.0526L35.0131 56.83C35.0131 56.83 26.4205 62.8758 15.8402 65.5675C7.9516 67.5759 7.57891 76.6861 7.88949 81.1791C7.88949 81.1791 8.345 87.2871 8.80051 89.9787C8.80051 89.9787 24.2051 99.9793 50.0036 100C75.802 100 91.2066 89.9787 91.2066 89.9787C91.6621 87.2871 92.1176 81.1791 92.1176 81.1791C92.4075 76.6861 92.0348 67.5759 84.1462 65.5675Z" fill="#000E29"/>
</svg>
