<svg width="100" height="100" viewBox="0 0 100 100" fill="none" xmlns="http://www.w3.org/2000/svg">
<path d="M31.2501 63.0734C26.3969 63.0734 22.4638 67.005 22.4638 71.8587C22.4638 76.7126 26.3969 80.6442 31.2501 80.6442C36.105 80.6442 40.0371 76.7126 40.0371 71.8587C40.0371 67.005 36.105 63.0734 31.2501 63.0734ZM31.2501 75.6782C29.1404 75.6782 27.4308 73.9684 27.4308 71.8587C27.4308 69.748 29.1404 68.0392 31.2501 68.0392C33.36 68.0392 35.0708 69.748 35.0708 71.8587C35.0708 73.9684 33.36 75.6782 31.2501 75.6782Z" fill="#000E29"/>
<path d="M77.5814 63.0734C72.7282 63.0734 68.7954 67.005 68.7954 71.8587C68.7954 76.7126 72.7282 80.6442 77.5814 80.6442C82.4366 80.6442 86.3684 76.7126 86.3684 71.8587C86.3684 67.005 82.4366 63.0734 77.5814 63.0734ZM77.5814 75.6782C75.4717 75.6782 73.7624 73.9684 73.7624 71.8587C73.7624 69.748 75.4717 68.0392 77.5814 68.0392C79.6916 68.0392 81.4024 69.748 81.4024 71.8587C81.4024 73.9684 79.6916 75.6782 77.5814 75.6782Z" fill="#000E29"/>
<path d="M41.1347 36.078C41.1347 37.3091 40.1273 38.3163 38.8964 38.3163H8.00894C6.77781 38.3163 5.77089 37.3091 5.77089 36.078V34.735C5.77089 33.5041 6.77806 32.4969 8.00894 32.4969H38.8964C40.1275 32.4969 41.1347 33.5041 41.1347 34.735V36.078Z" fill="#000E29"/>
<path d="M94.7982 49.1825C91.5766 48.3449 89.7331 47.8184 88.4681 45.3753L84.238 36.8108C82.9725 34.3677 79.6857 32.3686 76.9351 32.3686H71.1495C71.1495 32.3686 70.3712 32.3848 70.3712 31.6016C70.3712 29.8058 70.3712 24.4187 70.3712 24.4187C70.3712 21.6341 68.7954 19.3558 65.4435 19.3558H18.2911C13.4922 19.3558 11.2138 21.6344 11.2138 24.4187V28.9201C11.2138 28.9201 11.2138 30.2589 12.5096 30.2589C19.1063 30.2589 38.8964 30.2589 38.8964 30.2589C41.3648 30.2589 43.373 32.2668 43.373 34.7352V36.0782C43.373 38.5466 41.3648 40.5545 38.8964 40.5545H12.5096C12.5096 40.5545 11.2138 40.4469 11.2138 41.8457C11.2138 42.5404 11.2138 43.0067 11.2138 43.3937C11.2138 44.6248 12.9012 44.624 12.9012 44.624H30.6635C33.1319 44.624 35.1401 46.6322 35.1401 49.1004V50.4434C35.1401 52.9118 33.1319 54.9197 30.6635 54.9197H13.1815C13.1815 54.9197 11.2138 54.8833 11.2138 56.45C11.2138 59.1694 11.2138 67.3271 11.2138 67.3271C11.2138 70.1113 13.4922 72.3899 16.2767 72.3899C16.2767 72.3899 18.3742 72.3899 19.0733 72.3899C19.7076 72.3899 19.801 72.0367 19.801 71.8592C19.801 65.5465 24.9374 60.4113 31.2503 60.4113C37.5638 60.4113 42.6999 65.547 42.6999 71.8592C42.6999 72.0374 42.6493 72.3899 43.1343 72.3899C48.6778 72.3899 65.7031 72.3899 65.7031 72.3899C66.1505 72.3899 66.1323 72.0128 66.1323 71.8592C66.1323 65.5465 71.2685 60.4113 77.5817 60.4113C83.8949 60.4113 89.031 65.547 89.031 71.8592C89.031 72.0374 89.0266 72.3899 89.3066 72.3899C91.8485 72.3899 94.9966 72.3899 94.9966 72.3899C97.7487 72.3899 99.9998 70.1389 99.9998 67.387V57.8822C100 49.8777 97.4726 49.8777 94.7982 49.1825ZM85.2779 48.7373C85.2779 48.7373 74.6533 48.7373 71.0374 48.7373C70.4491 48.7373 70.3709 48.1645 70.3709 48.1645V36.3019C70.3709 36.3019 70.3378 35.8464 71.0932 35.8464C72.1092 35.8464 75.1565 35.8464 75.1565 35.8464C77.6048 35.8464 80.5292 37.6252 81.6548 39.7991L85.419 47.4199C85.5776 47.7267 85.7469 47.9991 85.9284 48.2432C86.0621 48.4221 85.8379 48.7373 85.2779 48.7373Z" fill="#000E29"/>
<path d="M32.9016 50.4433C32.9016 51.6745 31.8944 52.6816 30.6635 52.6816H2.23805C1.00693 52.6816 0 51.6745 0 50.4433V49.1004C0 47.8695 1.00717 46.8623 2.23805 46.8623H30.6635C31.8946 46.8623 32.9016 47.8695 32.9016 49.1004V50.4433Z" fill="#000E29"/>
</svg>
