<svg width="100" height="100" viewBox="0 0 100 100" fill="none" xmlns="http://www.w3.org/2000/svg">
<g clip-path="url(#clip0_19_110)">
<path d="M33.3334 44.8333C32.5371 44.8333 31.7315 44.8333 30.9167 44.8333C27.6188 44.7142 24.3316 45.274 21.2591 46.4782C18.1866 47.6823 15.3943 49.5051 13.0556 51.8333L12.3889 52.6111V75.6111H23.7222V62.5556L25.25 60.8333L25.9445 60.0278C29.5609 56.3125 34.0633 53.5786 39.0278 52.0833C36.5422 50.192 34.5819 47.6962 33.3334 44.8333Z" fill="#000E29"/>
<path d="M87.0555 51.75C84.7168 49.4218 81.9246 47.599 78.852 46.3949C75.7795 45.1907 72.4923 44.6308 69.1944 44.75C68.1829 44.7529 67.1723 44.8085 66.1666 44.9167C64.8947 47.6025 62.9879 49.9383 60.6111 51.7223C65.911 53.1885 70.7121 56.0692 74.5 60.0556L75.1944 60.8334L76.6944 62.5556V75.6389H87.6389V52.5278L87.0555 51.75Z" fill="#000E29"/>
<path d="M30.8334 39.4167C31.1389 39.4167 31.3889 39.4167 31.6945 39.4167C31.2944 35.9812 31.8972 32.5034 33.4301 29.403C34.9631 26.3026 37.3606 23.7122 40.3334 21.9444C39.2558 20.2982 37.7691 18.96 36.019 18.0609C34.2688 17.1619 32.3152 16.7328 30.3493 16.8156C28.3835 16.8985 26.4729 17.4904 24.8046 18.5335C23.1362 19.5767 21.7674 21.0352 20.8321 22.7662C19.8969 24.4973 19.4272 26.4416 19.4691 28.4087C19.5111 30.3759 20.0631 32.2984 21.0713 33.988C22.0795 35.6777 23.5092 37.0766 25.2205 38.0477C26.9317 39.0187 28.8658 39.5288 30.8334 39.5278V39.4167Z" fill="#000E29"/>
<path d="M67.8611 37.3333C67.8949 37.9718 67.8949 38.6116 67.8611 39.25C68.3942 39.3345 68.9326 39.3809 69.4723 39.3889H70C71.959 39.2845 73.8575 38.6745 75.5107 37.6186C77.1639 36.5626 78.5156 35.0965 79.4341 33.3631C80.3525 31.6297 80.8065 29.688 80.7518 27.7271C80.6971 25.7661 80.1355 23.8527 79.1219 22.1732C78.1082 20.4937 76.6769 19.1053 74.9673 18.1432C73.2578 17.181 71.3282 16.6779 69.3665 16.6828C67.4048 16.6878 65.4778 17.2006 63.7731 18.1713C62.0684 19.1421 60.6441 20.5377 59.6389 22.2222C62.153 23.8637 64.2204 26.1036 65.6554 28.741C67.0905 31.3784 67.8484 34.3308 67.8611 37.3333Z" fill="#000E29"/>
<path d="M49.6388 49.7778C56.4964 49.7778 62.0555 44.2187 62.0555 37.3611C62.0555 30.5036 56.4964 24.9445 49.6388 24.9445C42.7813 24.9445 37.2222 30.5036 37.2222 37.3611C37.2222 44.2187 42.7813 49.7778 49.6388 49.7778Z" fill="#000E29"/>
<path d="M50.3055 56.3889C46.6779 56.2424 43.0581 56.8314 39.664 58.1203C36.2698 59.4092 33.1716 61.3714 30.5555 63.8889L29.8611 64.6667V82.25C29.8719 82.8228 29.9955 83.3878 30.2247 83.9127C30.454 84.4377 30.7844 84.9124 31.1971 85.3096C31.6098 85.7069 32.0968 86.0189 32.6301 86.2279C33.1635 86.437 33.7328 86.5388 34.3055 86.5278H66.2222C66.7949 86.5388 67.3642 86.437 67.8976 86.2279C68.4309 86.0189 68.9179 85.7069 69.3306 85.3096C69.7433 84.9124 70.0737 84.4377 70.303 83.9127C70.5322 83.3878 70.6558 82.8228 70.6666 82.25V64.7222L70 63.8889C67.4009 61.3637 64.3134 59.3959 60.9268 58.1063C57.5403 56.8166 53.926 56.2322 50.3055 56.3889Z" fill="#000E29"/>
</g>
<defs>
<clipPath id="clip0_19_110">
<rect width="100" height="100" fill="white"/>
</clipPath>
</defs>
</svg>
