<svg width="100" height="100" viewBox="0 0 100 100" fill="none" xmlns="http://www.w3.org/2000/svg">
<path d="M90.625 43.75H83.75C83.125 39.6875 81.875 35.9375 79.6875 32.1875C77.5 28.125 78.125 22.8125 81.5625 19.375C82.1875 18.75 82.5 18.125 82.5 17.1875C82.5 16.25 82.5 15.625 81.875 15C75.625 8.75002 65.625 8.75002 59.0625 14.6875C55.3125 13.125 50.9375 12.5 46.875 12.5C34.6875 12.5 23.4375 18.4375 16.25 28.125C11.5625 34.375 9.375 42.1875 9.375 50C9.375 56.875 11.25 63.4375 14.6875 69.0625L15 69.6875C14.6875 70 14.375 70 14.0625 70C13.125 70.3125 12.5 69.6875 12.5 68.75C12.5 66.875 11.25 65.625 9.375 65.625C7.5 65.625 6.25 66.875 6.25 68.75C6.25 73.125 9.6875 76.5625 14.0625 76.5625C15.625 76.5625 17.1875 75.9375 18.4375 75.3125L28.75 92.1875C29.0625 93.125 30 93.75 31.25 93.75H43.75C44.6875 93.75 45.625 93.4375 46.25 92.5C46.875 91.875 47.1875 90.9375 46.875 90L46.25 87.5C47.5 87.5 49.0625 87.5 50.3125 87.5L50 90C50 90.9375 50 91.875 50.625 92.5C51.25 93.125 52.1875 93.75 53.125 93.75H65.625C66.5625 93.75 67.8125 93.125 68.125 92.1875L74.375 82.5C81.875 79.6875 88.4375 75.625 92.8125 70.9375C93.4375 70.3125 93.75 69.6875 93.75 68.75V46.875C93.75 45 92.5 43.75 90.625 43.75ZM50 28.125C42.5 28.125 35.625 31.25 30.9375 36.875C30.3125 37.5 29.375 38.125 28.4375 38.125C27.8125 38.125 26.875 37.8125 26.5625 37.5C25 36.25 25 34.375 26.25 33.125C32.1875 25.9375 40.625 21.875 50 21.875C51.875 21.875 53.125 23.125 53.125 25C53.125 26.875 51.875 28.125 50 28.125Z" fill="#000E29"/>
</svg>
