<svg width="100" height="100" viewBox="0 0 100 100" fill="none" xmlns="http://www.w3.org/2000/svg">
<path d="M60.1942 60.9832C61.318 55.4547 63.0549 46.8725 63.0662 46.8612C66.347 43.0129 68.3676 27.12 68.3676 21.2851C68.3676 9.52436 60.1488 0 50 0C39.8513 0 31.6324 9.53571 31.6324 21.2851C31.6324 27.12 33.6531 43.0128 36.9338 46.8612C36.9338 46.8612 38.6819 55.4547 39.8059 60.9832H60.1942Z" fill="#000E29"/>
<path d="M8.39483 90.033C8.31536 90.033 8.2359 90.033 8.15643 90.0217V94.324C8.15643 97.4573 10.6993 100 13.8325 100H86.1676C89.3009 100 91.8437 97.4573 91.8437 94.324V90.0217C91.7643 90.0217 91.6849 90.033 91.6053 90.033H8.39483Z" fill="#000E29"/>
<path d="M93.5692 85.7987C94.205 85.5603 94.7839 85.2197 95.2947 84.7884C96.5094 83.7441 97.2813 82.2001 97.2813 80.4746V70.5529C97.2813 67.4196 94.7384 64.8769 91.6053 64.8769H59.4109H40.5891H8.39483C5.26167 64.8769 2.71881 67.4196 2.71881 70.5529V80.4745C2.71881 82.2 3.49075 83.744 4.70542 84.7883C5.21626 85.2197 5.79521 85.5603 6.43093 85.7986C6.97583 86.0029 7.55478 86.1164 8.15644 86.1392C8.2359 86.1392 8.31537 86.1505 8.39483 86.1505H91.5939C91.6733 86.1505 91.7527 86.1505 91.8323 86.1392C92.4453 86.1166 93.0243 85.9917 93.5692 85.7987Z" fill="#000E29"/>
</svg>
