<svg width="100" height="100" viewBox="0 0 100 100" fill="none" xmlns="http://www.w3.org/2000/svg">
<g clip-path="url(#clip0_19_25)">
<path d="M86.9022 35.9532C88.51 35.9532 90.0212 35.3273 91.158 34.1905C92.295 33.0535 92.9211 31.5423 92.9211 29.9345C92.9211 28.3267 92.295 26.8155 91.158 25.6787L85.2001 19.7206C84.0633 18.5835 82.5521 17.9577 80.9443 17.9577C79.3364 17.9577 77.8253 18.5835 76.6885 19.7206C74.5307 21.8781 74.3586 25.2793 76.1688 27.6373L74.7514 28.9655C69.6876 24.9189 63.6212 22.0771 56.989 20.8824V17.8537C61.7574 17.675 65.5821 13.7423 65.5821 8.9311C65.5821 4.00646 61.5756 0 56.651 0H43.1519C38.2272 0 34.2208 4.00646 34.2208 8.9311C34.2208 13.7423 38.0455 17.675 42.8139 17.8537V20.8824C36.1236 22.0877 30.0094 24.969 24.9191 29.0721L23.6991 27.8046C25.6492 25.4428 25.5204 21.9299 23.3115 19.7206C22.1747 18.5835 20.6631 17.9577 19.0555 17.9577C17.4479 17.9577 15.9365 18.5835 14.7997 19.7206L8.84176 25.6787C7.70496 26.8155 7.07889 28.3267 7.07889 29.9345C7.07889 31.5423 7.70496 33.0535 8.84176 34.1903C9.97856 35.3273 11.4902 35.9532 13.0978 35.9532C14.4579 35.9532 15.7486 35.5034 16.8024 34.6769L18.1319 36.0583C13.0486 42.7515 10.027 51.092 10.027 60.1259C10.027 82.1125 27.9147 100 49.9016 100C71.8884 100 89.7759 82.1125 89.7759 60.1259C89.7759 51.0291 86.7117 42.6357 81.5642 35.9189L83.0321 34.5432C84.115 35.4554 85.47 35.9532 86.9022 35.9532ZM82.6856 60.1257C82.6856 78.2027 67.9786 92.9098 49.9016 92.9098C31.8243 92.9098 17.1172 78.2027 17.1172 60.1257C17.1172 42.0484 31.8243 27.3414 49.9016 27.3414C67.9788 27.3416 82.6856 42.0484 82.6856 60.1257Z" fill="#000E29"/>
<path d="M49.9015 34.8461C35.9624 34.8461 24.622 46.1865 24.622 60.1257C24.622 74.0648 35.9624 85.405 49.9015 85.405C63.8407 85.405 75.1808 74.0648 75.1808 60.1257C75.1808 46.1865 63.8407 34.8461 49.9015 34.8461ZM63.3335 53.0749L54.9855 60.3859C54.9238 61.6021 54.4341 62.8006 53.5053 63.7294C51.515 65.7196 48.288 65.7196 46.2978 63.7294C44.3076 61.7389 44.3076 58.5122 46.2978 56.5219C47.3989 55.4208 48.8782 54.9316 50.3175 55.0491L58.662 47.7411C60.1351 46.4514 62.3745 46.5994 63.6646 48.0723C64.9546 49.5454 64.8062 51.7849 63.3335 53.0749Z" fill="#000E29"/>
</g>
<defs>
<clipPath id="clip0_19_25">
<rect width="100" height="100" fill="white"/>
</clipPath>
</defs>
</svg>
