<svg width="100" height="100" viewBox="0 0 100 100" fill="none" xmlns="http://www.w3.org/2000/svg">
<path d="M49.9995 8.86426C39.8151 8.86426 31.0845 15.6076 27.3946 25.1992H72.6034C68.9155 15.6086 60.1838 8.86426 49.9995 8.86426Z" fill="#000E29"/>
<path d="M95.2399 49.925H81.0993C81.8879 46.7339 82.3613 43.3725 82.4745 39.8968C87.5142 36.8699 93.3056 31.564 94.7451 22.763C95.1695 20.1677 93.4087 17.7214 90.8144 17.298C88.2181 16.8756 85.7758 18.6344 85.3504 21.2267C84.5761 25.9602 81.5523 29.1065 78.5836 31.1182H21.4327C18.4589 29.1044 15.4219 25.9582 14.6486 21.2267C14.2242 18.6334 11.784 16.8756 9.18356 17.298C6.58927 17.7224 4.82948 20.1677 5.25387 22.763C6.69333 31.563 12.4838 36.8699 17.5245 39.8968C17.6377 43.3725 18.11 46.7339 18.8996 49.925H4.75909C2.13113 49.925 0 52.0562 0 54.6851C0 57.3141 2.13113 59.4452 4.75909 59.4452H22.4304C23.7679 62.0742 25.343 64.5002 27.1253 66.6711C20.9022 71.3343 15.074 79.4722 12.2471 83.7538C10.7985 85.9451 11.4014 88.8975 13.5937 90.3472C14.4017 90.8807 15.3138 91.1358 16.2135 91.1358C17.7581 91.1358 19.273 90.3859 20.1891 89.0016C24.9064 81.8706 30.9886 75.1314 34.2124 73.2175C38.0849 75.871 42.4482 77.5645 47.0889 78.0725V42.1299H52.9121V78.0725C57.5467 77.5645 61.9028 75.8761 65.7744 73.2287C69.0338 75.1569 75.1048 81.8828 79.8119 89.0016C80.728 90.3849 82.2429 91.1358 83.7864 91.1358C84.6873 91.1358 85.5983 90.8807 86.4062 90.3472C88.5976 88.8985 89.2015 85.9482 87.7529 83.7538C84.9229 79.4691 79.109 71.3241 72.8798 66.665C74.66 64.4951 76.2321 62.0712 77.5685 59.4452H95.2399C97.8668 59.4452 99.999 57.3141 99.999 54.6851C99.999 52.0562 97.8689 49.925 95.2399 49.925Z" fill="#000E29"/>
</svg>
