<svg width="20" height="20" viewBox="0 0 20 20" fill="none" xmlns="http://www.w3.org/2000/svg">
<g clip-path="url(#clip0_80_2)">
<path fill-rule="evenodd" clip-rule="evenodd" d="M10 5.83331C7.69886 5.83331 5.83337 7.6988 5.83337 9.99998C5.83337 12.3011 7.69886 14.1666 10 14.1666C12.3012 14.1666 14.1667 12.3011 14.1667 9.99998C14.1667 7.6988 12.3012 5.83331 10 5.83331ZM7.50004 9.99998C7.50004 11.3807 8.61929 12.5 10 12.5C11.3808 12.5 12.5 11.3807 12.5 9.99998C12.5 8.61923 11.3808 7.49998 10 7.49998C8.61929 7.49998 7.50004 8.61923 7.50004 9.99998Z" fill="#F8F9FA" stroke="#F8F9FA" stroke-width="0.5"/>
<path d="M15 4.16669C14.5397 4.16669 14.1666 4.53979 14.1666 5.00002C14.1666 5.46025 14.5397 5.83335 15 5.83335C15.4602 5.83335 15.8333 5.46025 15.8333 5.00002C15.8333 4.53979 15.4602 4.16669 15 4.16669Z" fill="#F8F9FA" stroke="#F8F9FA" stroke-width="0.5"/>
<path fill-rule="evenodd" clip-rule="evenodd" d="M4.16671 0.833313C2.32576 0.833313 0.833374 2.3257 0.833374 4.16665V15.8333C0.833374 17.6742 2.32576 19.1666 4.16671 19.1666H15.8334C17.6743 19.1666 19.1667 17.6742 19.1667 15.8333V4.16665C19.1667 2.3257 17.6743 0.833313 15.8334 0.833313H4.16671ZM15.8334 2.49998H4.16671C3.24623 2.49998 2.50004 3.24617 2.50004 4.16665V15.8333C2.50004 16.7538 3.24623 17.5 4.16671 17.5H15.8334C16.7539 17.5 17.5 16.7538 17.5 15.8333V4.16665C17.5 3.24617 16.7539 2.49998 15.8334 2.49998Z" fill="#F8F9FA" stroke="#F8F9FA" stroke-width="0.5"/>
</g>
<defs>
<clipPath id="clip0_80_2">
<rect width="20" height="20" fill="white"/>
</clipPath>
</defs>
</svg>
