<svg width="40" height="40" viewBox="0 0 40 40" fill="none" xmlns="http://www.w3.org/2000/svg">
<g clip-path="url(#clip0_25_10)">
<path d="M6.66667 21.6666C7.58714 21.6666 8.33333 20.9205 8.33333 20C8.33333 19.0795 7.58714 18.3333 6.66667 18.3333C5.74619 18.3333 5 19.0795 5 20C5 20.9205 5.74619 21.6666 6.66667 21.6666Z" fill="#2D6DBD"/>
<path d="M33.4333 18.3333H13.2333C12.368 18.3333 11.6666 19.0347 11.6666 19.9V20.1C11.6666 20.9652 12.368 21.6666 13.2333 21.6666H33.4333C34.2985 21.6666 35 20.9652 35 20.1V19.9C35 19.0347 34.2985 18.3333 33.4333 18.3333Z" fill="#2D6DBD"/>
<path d="M33.4333 28.6666H6.56667C5.70142 28.6666 5 29.368 5 30.2333V30.4333C5 31.2985 5.70142 32 6.56667 32H33.4333C34.2986 32 35 31.2985 35 30.4333V30.2333C35 29.368 34.2986 28.6666 33.4333 28.6666Z" fill="#2D6DBD"/>
<path d="M33.4333 8H6.56667C5.70142 8 5 8.70142 5 9.56667V9.76667C5 10.6319 5.70142 11.3333 6.56667 11.3333H33.4333C34.2986 11.3333 35 10.6319 35 9.76667V9.56667C35 8.70142 34.2986 8 33.4333 8Z" fill="#2D6DBD"/>
</g>
<defs>
<clipPath id="clip0_25_10">
<rect width="40" height="40" fill="white"/>
</clipPath>
</defs>
</svg>
